<mxfile host="app.diagrams.net" modified="2023-07-22T03:39:49.661Z" agent="Mozilla/5.0 (Windows NT 10.0; Win64; x64) AppleWebKit/537.36 (KHTML, like Gecko) Chrome/114.0.0.0 Safari/537.36" etag="EBG_ZvhoZmTpjxW-fIjD" version="21.6.1" type="github">
  <diagram name="페이지-1" id="eC_Sqe3bva3hQiw6CWfz">
    <mxGraphModel dx="1434" dy="836" grid="1" gridSize="10" guides="1" tooltips="1" connect="1" arrows="1" fold="1" page="1" pageScale="1" pageWidth="827" pageHeight="1169" math="0" shadow="0">
      <root>
        <mxCell id="0" />
        <mxCell id="1" parent="0" />
        <mxCell id="fMppdMMEpu0AwJywjud3-1" value="고객" style="whiteSpace=wrap;html=1;align=center;fontSize=17;fontStyle=1" parent="1" vertex="1">
          <mxGeometry x="271" y="310" width="100" height="40" as="geometry" />
        </mxCell>
        <mxCell id="fMppdMMEpu0AwJywjud3-2" value="고객명" style="ellipse;whiteSpace=wrap;html=1;align=center;fontSize=15;" parent="1" vertex="1">
          <mxGeometry x="151" y="230" width="100" height="40" as="geometry" />
        </mxCell>
        <mxCell id="fMppdMMEpu0AwJywjud3-3" value="" style="endArrow=none;html=1;rounded=0;exitX=0.5;exitY=1;exitDx=0;exitDy=0;entryX=0.5;entryY=0;entryDx=0;entryDy=0;" parent="1" source="fMppdMMEpu0AwJywjud3-2" target="fMppdMMEpu0AwJywjud3-1" edge="1">
          <mxGeometry relative="1" as="geometry">
            <mxPoint x="451" y="390" as="sourcePoint" />
            <mxPoint x="611" y="390" as="targetPoint" />
          </mxGeometry>
        </mxCell>
        <mxCell id="fMppdMMEpu0AwJywjud3-4" value="&lt;span&gt;전화번호&lt;/span&gt;" style="ellipse;whiteSpace=wrap;html=1;align=center;fontSize=15;fontStyle=4" parent="1" vertex="1">
          <mxGeometry x="281" y="210" width="100" height="40" as="geometry" />
        </mxCell>
        <mxCell id="fMppdMMEpu0AwJywjud3-5" value="" style="endArrow=none;html=1;rounded=0;exitX=0.5;exitY=1;exitDx=0;exitDy=0;entryX=0.5;entryY=0;entryDx=0;entryDy=0;" parent="1" source="fMppdMMEpu0AwJywjud3-4" target="fMppdMMEpu0AwJywjud3-1" edge="1">
          <mxGeometry relative="1" as="geometry">
            <mxPoint x="451" y="390" as="sourcePoint" />
            <mxPoint x="611" y="390" as="targetPoint" />
          </mxGeometry>
        </mxCell>
        <mxCell id="fMppdMMEpu0AwJywjud3-6" value="이메일" style="ellipse;whiteSpace=wrap;html=1;align=center;fontStyle=4;fontSize=16;" parent="1" vertex="1">
          <mxGeometry x="381" y="230" width="100" height="40" as="geometry" />
        </mxCell>
        <mxCell id="fMppdMMEpu0AwJywjud3-7" value="" style="endArrow=none;html=1;rounded=0;exitX=0.5;exitY=1;exitDx=0;exitDy=0;entryX=0.59;entryY=0;entryDx=0;entryDy=0;entryPerimeter=0;" parent="1" source="fMppdMMEpu0AwJywjud3-6" target="fMppdMMEpu0AwJywjud3-1" edge="1">
          <mxGeometry relative="1" as="geometry">
            <mxPoint x="451" y="390" as="sourcePoint" />
            <mxPoint x="321" y="310" as="targetPoint" />
          </mxGeometry>
        </mxCell>
        <mxCell id="fMppdMMEpu0AwJywjud3-8" value="주소" style="ellipse;whiteSpace=wrap;html=1;align=center;fontSize=15;fontColor=#FF0000;" parent="1" vertex="1">
          <mxGeometry x="131" y="310" width="100" height="40" as="geometry" />
        </mxCell>
        <mxCell id="fMppdMMEpu0AwJywjud3-9" value="" style="endArrow=none;html=1;rounded=0;exitX=1;exitY=0.5;exitDx=0;exitDy=0;entryX=0;entryY=0.5;entryDx=0;entryDy=0;" parent="1" source="fMppdMMEpu0AwJywjud3-8" target="fMppdMMEpu0AwJywjud3-1" edge="1">
          <mxGeometry relative="1" as="geometry">
            <mxPoint x="351" y="320" as="sourcePoint" />
            <mxPoint x="511" y="320" as="targetPoint" />
          </mxGeometry>
        </mxCell>
        <mxCell id="fMppdMMEpu0AwJywjud3-10" value="지역" style="ellipse;whiteSpace=wrap;html=1;align=center;fontSize=15;fontColor=#FF0000;" parent="1" vertex="1">
          <mxGeometry x="131" y="380" width="100" height="40" as="geometry" />
        </mxCell>
        <mxCell id="fMppdMMEpu0AwJywjud3-11" value="가입일" style="ellipse;whiteSpace=wrap;html=1;align=center;fontSize=15;" parent="1" vertex="1">
          <mxGeometry x="251" y="405" width="100" height="40" as="geometry" />
        </mxCell>
        <mxCell id="fMppdMMEpu0AwJywjud3-12" value="" style="endArrow=none;html=1;rounded=0;exitX=0.59;exitY=0.025;exitDx=0;exitDy=0;exitPerimeter=0;entryX=0.5;entryY=1;entryDx=0;entryDy=0;" parent="1" source="fMppdMMEpu0AwJywjud3-10" target="fMppdMMEpu0AwJywjud3-1" edge="1">
          <mxGeometry relative="1" as="geometry">
            <mxPoint x="351" y="320" as="sourcePoint" />
            <mxPoint x="511" y="320" as="targetPoint" />
          </mxGeometry>
        </mxCell>
        <mxCell id="fMppdMMEpu0AwJywjud3-13" value="" style="endArrow=none;html=1;rounded=0;exitX=0.5;exitY=0;exitDx=0;exitDy=0;" parent="1" source="fMppdMMEpu0AwJywjud3-11" edge="1">
          <mxGeometry relative="1" as="geometry">
            <mxPoint x="250" y="406" as="sourcePoint" />
            <mxPoint x="321" y="350" as="targetPoint" />
          </mxGeometry>
        </mxCell>
        <mxCell id="fMppdMMEpu0AwJywjud3-14" value="&lt;u&gt;&lt;b&gt;고객코드&lt;/b&gt;&lt;/u&gt;" style="ellipse;whiteSpace=wrap;html=1;align=center;fontSize=15;fontColor=#FF0000;" parent="1" vertex="1">
          <mxGeometry x="371" y="400" width="100" height="40" as="geometry" />
        </mxCell>
        <mxCell id="fMppdMMEpu0AwJywjud3-15" value="" style="endArrow=none;html=1;rounded=0;entryX=0;entryY=0;entryDx=0;entryDy=0;" parent="1" target="fMppdMMEpu0AwJywjud3-14" edge="1">
          <mxGeometry relative="1" as="geometry">
            <mxPoint x="321" y="350" as="sourcePoint" />
            <mxPoint x="431" y="350" as="targetPoint" />
          </mxGeometry>
        </mxCell>
        <mxCell id="O_S4M6XEGFmpJgB0r6zT-2" value="기본주소" style="ellipse;whiteSpace=wrap;html=1;align=center;fontSize=15;" vertex="1" parent="1">
          <mxGeometry x="10" y="280" width="100" height="40" as="geometry" />
        </mxCell>
        <mxCell id="O_S4M6XEGFmpJgB0r6zT-3" value="상세주소" style="ellipse;whiteSpace=wrap;html=1;align=center;fontSize=15;" vertex="1" parent="1">
          <mxGeometry x="10" y="340" width="100" height="40" as="geometry" />
        </mxCell>
        <mxCell id="O_S4M6XEGFmpJgB0r6zT-4" value="" style="endArrow=none;html=1;rounded=0;exitX=1;exitY=0.5;exitDx=0;exitDy=0;entryX=0;entryY=0.5;entryDx=0;entryDy=0;" edge="1" parent="1" source="O_S4M6XEGFmpJgB0r6zT-2" target="fMppdMMEpu0AwJywjud3-8">
          <mxGeometry relative="1" as="geometry">
            <mxPoint x="271" y="270" as="sourcePoint" />
            <mxPoint x="431" y="270" as="targetPoint" />
          </mxGeometry>
        </mxCell>
        <mxCell id="O_S4M6XEGFmpJgB0r6zT-5" value="" style="endArrow=none;html=1;rounded=0;exitX=1;exitY=0.5;exitDx=0;exitDy=0;entryX=0;entryY=0.5;entryDx=0;entryDy=0;" edge="1" parent="1" source="O_S4M6XEGFmpJgB0r6zT-3" target="fMppdMMEpu0AwJywjud3-8">
          <mxGeometry relative="1" as="geometry">
            <mxPoint x="120" y="310" as="sourcePoint" />
            <mxPoint x="141" y="340" as="targetPoint" />
          </mxGeometry>
        </mxCell>
      </root>
    </mxGraphModel>
  </diagram>
</mxfile>
